<svg width="256" height="256" viewBox="0 0 256 256" fill="none" xmlns="http://www.w3.org/2000/svg">
<rect y="145" width="35" height="145" rx="17.5" transform="rotate(-90 0 145)" fill="#F0F2F2"/>
<rect x="49.8647" y="230.384" width="35" height="256" rx="17.5" transform="rotate(-135 49.8647 230.384)" fill="url(#paint0_linear_19_65)"/>
<rect x="110" width="35" height="256" rx="17.5" fill="#F0F2F2"/>
<rect x="25.116" y="49.3643" width="35" height="256" rx="17.5" transform="rotate(-45 25.116 49.3643)" fill="url(#paint1_linear_19_65)"/>
<rect x="110" y="145" width="35" height="146" rx="17.5" transform="rotate(-90 110 145)" fill="#F0F2F2"/>
<rect x="110" width="35" height="130" rx="17.5" fill="#6CAFD9"/>
<rect x="25.116" y="49.3643" width="35" height="145.064" rx="17.5" transform="rotate(-45 25.116 49.3643)" fill="#6CAFD9"/>
<rect x="128.639" y="151.781" width="35" height="144.295" rx="17.5" transform="rotate(-135 128.639 151.781)" fill="#6CAFD9"/>
<defs>
<linearGradient id="paint0_linear_19_65" x1="67.3647" y1="230.384" x2="67.3647" y2="486.384" gradientUnits="userSpaceOnUse">
<stop offset="0.25" stop-color="#F0F2F2"/>
<stop offset="1" stop-color="#6CAFD9"/>
</linearGradient>
<linearGradient id="paint1_linear_19_65" x1="42.616" y1="49.3643" x2="42.616" y2="305.364" gradientUnits="userSpaceOnUse">
<stop stop-color="#6CAFD9"/>
<stop offset="0.75" stop-color="#F0F2F2"/>
</linearGradient>
</defs>
</svg>
